<?xml version="1.0" standalone="no"?><!-- Generator: Gravit.io --><svg xmlns="http://www.w3.org/2000/svg" xmlns:xlink="http://www.w3.org/1999/xlink" style="isolation:isolate" viewBox="0 0 90 90" width="90" height="90"><defs><clipPath id="_clipPath_GtieznqH1ewEP0aWpEyoLNMXna1yAvqs"><rect width="90" height="90"/></clipPath></defs><g clip-path="url(#_clipPath_GtieznqH1ewEP0aWpEyoLNMXna1yAvqs)"><path d=" M 74.75 69.47 L 74.75 69.47 L 70.758 69.47 C 67.912 69.47 65.606 67.164 65.606 64.32 L 65.606 51.439 L 55.303 51.439 L 55.303 74.75 C 58.242 75.347 60.455 77.945 60.455 81.061 C 60.455 84.617 57.572 87.5 54.015 87.5 C 50.459 87.5 47.576 84.617 47.576 81.061 C 47.576 77.945 49.788 75.347 52.727 74.75 L 52.727 51.439 L 37.273 51.439 L 37.273 74.75 C 40.212 75.347 42.424 77.945 42.424 81.061 C 42.424 84.617 39.541 87.5 35.985 87.5 C 32.428 87.5 29.545 84.617 29.545 81.061 C 29.545 77.945 31.758 75.347 34.697 74.75 L 34.697 51.439 L 24.394 51.439 L 24.394 64.32 C 24.394 67.164 22.088 69.47 19.242 69.47 L 15.25 69.47 C 14.653 72.409 12.055 74.621 8.939 74.621 C 5.383 74.621 2.5 71.738 2.5 68.182 C 2.5 64.625 5.383 61.742 8.939 61.742 C 12.055 61.742 14.653 63.955 15.25 66.894 L 19.242 66.894 C 20.665 66.894 21.818 65.742 21.818 64.32 L 21.818 51.439 L 19.242 51.439 C 9.996 51.439 2.5 43.944 2.5 34.697 C 2.5 26.027 9.103 18.858 17.605 18.034 C 20.368 8.908 28.825 2.5 38.561 2.5 C 47.391 2.5 55.227 7.776 58.655 15.687 C 59.663 15.483 60.696 15.379 61.742 15.379 C 69.367 15.379 75.782 20.927 77.042 28.312 C 82.912 28.882 87.5 33.829 87.5 39.848 C 87.5 46.25 82.311 51.439 75.909 51.439 L 68.182 51.439 L 68.182 64.32 C 68.182 65.742 69.335 66.894 70.758 66.894 L 74.75 66.894 C 75.347 63.955 77.945 61.742 81.061 61.742 C 84.617 61.742 87.5 64.625 87.5 68.182 C 87.5 71.738 84.617 74.621 81.061 74.621 C 77.945 74.621 75.347 72.409 74.75 69.47 Z  M 81.061 72.045 C 83.194 72.045 84.924 70.316 84.924 68.182 C 84.924 66.048 83.194 64.318 81.061 64.318 C 78.927 64.318 77.197 66.048 77.197 68.182 C 77.197 70.316 78.927 72.045 81.061 72.045 Z  M 8.939 72.045 C 11.073 72.045 12.803 70.316 12.803 68.182 C 12.803 66.048 11.073 64.318 8.939 64.318 C 6.806 64.318 5.076 66.048 5.076 68.182 C 5.076 70.316 6.806 72.045 8.939 72.045 Z  M 35.985 84.924 C 38.119 84.924 39.848 83.194 39.848 81.061 C 39.848 78.927 38.119 77.197 35.985 77.197 C 33.851 77.197 32.121 78.927 32.121 81.061 C 32.121 83.194 33.851 84.924 35.985 84.924 Z  M 54.015 84.924 C 56.149 84.924 57.879 83.194 57.879 81.061 C 57.879 78.927 56.149 77.197 54.015 77.197 C 51.881 77.197 50.152 78.927 50.152 81.061 C 50.152 83.194 51.881 84.924 54.015 84.924 Z  M 61.742 17.955 C 60.54 17.955 59.36 18.119 58.227 18.44 C 57.581 18.623 56.904 18.279 56.669 17.65 C 53.876 10.152 46.696 5.076 38.561 5.076 C 29.69 5.076 22.022 11.105 19.848 19.576 C 19.707 20.126 19.221 20.519 18.653 20.542 C 11.081 20.852 5.076 27.092 5.076 34.697 C 5.076 42.521 11.418 48.864 19.242 48.864 L 75.909 48.864 C 80.888 48.864 84.924 44.827 84.924 39.848 C 84.924 34.87 80.888 30.833 75.909 30.833 C 75.247 30.833 74.692 30.331 74.627 29.671 C 73.978 23.053 68.413 17.955 61.742 17.955 Z " fill-rule="evenodd" fill="rgb(102,102,102)"/></g></svg>