<?xml version="1.0" standalone="no"?><!-- Generator: Gravit.io --><svg xmlns="http://www.w3.org/2000/svg" xmlns:xlink="http://www.w3.org/1999/xlink" style="isolation:isolate" viewBox="0 0 90 90" width="90" height="90"><defs><clipPath id="_clipPath_smQb0rzWFQGydeYOPlNQUnbAAWu8oE0V"><rect width="90" height="90"/></clipPath></defs><g clip-path="url(#_clipPath_smQb0rzWFQGydeYOPlNQUnbAAWu8oE0V)"><path d=" M 84.495 61.86 C 84.645 61.428 84.737 60.965 84.737 60.476 C 84.737 58.326 83.146 56.577 81.19 56.577 L 80.468 56.577 L 80.468 40.277 C 80.468 39.566 79.892 38.989 79.18 38.989 L 77.793 38.989 L 77.793 38.932 C 77.793 37.609 78.022 36.287 78.448 34.989 L 85.376 34.989 C 86.088 34.989 86.664 34.412 86.664 33.701 C 86.664 32.99 86.088 32.413 85.376 32.413 L 79.301 32.413 C 79.793 30.703 79.984 29.248 79.856 28.083 L 79.856 15.381 C 79.858 15.21 79.835 13.877 78.919 12.737 L 85.376 12.737 C 86.088 12.737 86.664 12.161 86.664 11.449 C 86.664 10.738 86.088 10.162 85.376 10.162 L 75.276 10.162 L 75.276 9.263 C 75.276 7.307 73.527 5.716 71.378 5.716 C 70.891 5.716 70.429 5.807 70 5.956 C 69.706 4.257 68.102 2.95 66.157 2.95 C 64.212 2.95 62.609 4.257 62.315 5.955 C 61.881 5.803 61.416 5.711 60.925 5.711 C 58.783 5.711 57.04 7.307 57.04 9.269 L 57.04 10.162 L 39.818 10.162 C 39.106 10.162 38.53 10.738 38.53 11.449 L 38.53 12.83 L 38.479 12.83 C 36.96 12.83 35.44 12.547 33.961 11.986 C 33.944 11.98 33.929 11.976 33.912 11.97 L 33.912 4.166 C 33.912 3.454 33.336 2.878 32.624 2.878 C 31.912 2.878 31.336 3.454 31.336 4.166 L 31.336 11.168 C 29.9 10.807 28.643 10.655 27.63 10.768 L 14.927 10.768 C 14.706 10.75 12.939 10.793 11.734 12.237 C 11.705 12.272 11.689 12.317 11.661 12.353 L 11.661 4.166 C 11.661 3.454 11.085 2.878 10.373 2.878 C 9.661 2.878 9.085 3.454 9.085 4.166 L 9.085 15.347 L 8.81 15.347 C 6.854 15.347 5.263 17.096 5.263 19.246 C 5.263 19.735 5.355 20.198 5.505 20.629 C 3.807 20.919 2.5 22.522 2.5 24.468 C 2.5 26.413 3.807 28.017 5.505 28.307 C 5.355 28.738 5.263 29.202 5.263 29.69 C 5.263 31.84 6.854 33.589 8.81 33.589 L 9.085 33.589 L 9.085 49.722 C 9.085 50.434 9.661 51.01 10.373 51.01 L 11.753 51.01 L 11.753 51.064 C 11.753 52.444 11.506 53.823 11.044 55.174 L 4.614 55.174 C 3.902 55.174 3.326 55.75 3.326 56.462 C 3.326 57.173 3.902 57.75 4.614 57.75 L 10.204 57.75 C 9.749 59.385 9.566 60.788 9.69 61.913 L 9.69 74.615 C 9.688 74.795 9.716 76.253 10.773 77.426 L 4.614 77.426 C 3.902 77.426 3.326 78.002 3.326 78.713 C 3.326 79.425 3.902 80.001 4.614 80.001 L 14.27 80.001 L 14.27 80.733 C 14.27 82.689 16.019 84.281 18.168 84.281 C 18.657 84.281 19.12 84.189 19.552 84.039 C 19.842 85.736 21.445 87.043 23.39 87.043 C 25.335 87.043 26.939 85.736 27.229 84.039 C 27.661 84.189 28.124 84.281 28.614 84.281 C 30.763 84.281 32.512 82.689 32.512 80.733 L 32.512 80.001 L 50.191 80.001 C 50.902 80.001 51.478 79.425 51.478 78.713 L 51.478 77.336 L 51.521 77.336 C 52.905 77.336 54.288 77.584 55.641 78.049 L 55.641 85.834 C 55.641 86.546 56.217 87.122 56.929 87.122 C 57.641 87.122 58.217 86.546 58.217 85.834 L 58.217 78.887 C 59.497 79.242 60.642 79.438 61.612 79.438 C 61.877 79.438 62.13 79.425 62.37 79.399 L 75.073 79.399 C 75.272 79.381 76.725 79.365 77.892 78.306 L 77.892 85.834 C 77.892 86.546 78.468 87.122 79.18 87.122 C 79.892 87.122 80.468 86.546 80.468 85.834 L 80.468 74.82 L 81.19 74.82 C 83.146 74.82 84.737 73.071 84.737 70.921 C 84.737 70.432 84.645 69.969 84.495 69.537 C 86.193 69.247 87.5 67.644 87.5 65.699 C 87.5 63.753 86.193 62.15 84.495 61.86 Z  M 77.892 56.577 L 73.534 56.577 C 73.689 56.124 73.782 55.636 73.782 55.122 C 73.782 52.899 72.191 51.09 70.234 51.09 L 67.801 51.09 C 64.334 51.09 61.021 52.075 58.217 53.836 L 58.217 41.565 L 77.892 41.565 L 77.892 56.577 L 77.892 56.577 Z  M 50.191 55.174 L 33.27 55.174 C 32.929 54.81 32.582 54.45 32.208 54.117 L 32.046 53.974 C 31.692 53.665 31.49 53.189 31.49 52.668 L 31.49 51.01 L 32.624 51.01 C 33.336 51.01 33.912 50.434 33.912 49.722 L 33.912 34.764 C 34.445 34.299 34.958 33.811 35.431 33.28 L 35.57 33.125 C 35.879 32.771 36.355 32.568 36.875 32.568 L 38.53 32.568 L 38.53 33.701 C 38.53 34.412 39.106 34.989 39.818 34.989 L 56.444 34.989 C 56.737 35.293 57.025 35.601 57.342 35.883 C 57.344 35.886 57.496 36.02 57.499 36.023 C 57.852 36.332 58.055 36.808 58.055 37.329 L 58.055 38.989 L 56.929 38.989 C 56.217 38.989 55.641 39.566 55.641 40.277 L 55.641 55.808 C 55.273 56.152 54.91 56.503 54.574 56.881 L 54.43 57.042 C 54.121 57.396 53.645 57.599 53.125 57.599 L 51.478 57.599 L 51.478 56.462 C 51.478 55.75 50.902 55.174 50.191 55.174 Z  M 59.616 9.269 C 59.616 8.737 60.216 8.287 60.925 8.287 C 61.644 8.287 62.253 8.737 62.253 9.269 L 62.253 19.115 C 62.253 19.826 62.829 20.403 63.541 20.403 C 64.253 20.403 64.829 19.826 64.829 19.115 L 64.829 9.269 L 64.829 6.509 C 64.829 5.985 65.449 5.526 66.157 5.526 C 66.865 5.526 67.485 5.985 67.485 6.509 L 67.485 9.206 C 67.485 9.226 67.479 9.244 67.479 9.263 L 67.479 19.113 C 67.479 19.648 67.805 20.106 68.27 20.301 C 68.425 20.366 68.594 20.403 68.773 20.403 C 69.485 20.403 70.061 19.826 70.061 19.115 L 70.061 9.241 C 70.078 8.725 70.671 8.291 71.378 8.291 C 72.095 8.291 72.701 8.737 72.701 9.263 L 72.701 11.437 C 72.701 11.441 72.698 11.445 72.698 11.449 C 72.698 11.454 72.701 11.458 72.701 11.462 L 72.701 19.113 C 72.701 19.824 73.277 20.401 73.989 20.401 C 74.7 20.401 75.276 19.824 75.276 19.113 L 75.276 13.786 C 75.819 13.777 76.354 13.855 76.722 14.153 C 77.26 14.589 77.28 15.362 77.28 15.367 L 77.28 28.158 C 77.28 28.211 77.284 28.264 77.29 28.318 C 77.433 29.469 77.056 31.311 76.227 33.503 C 75.557 35.275 75.217 37.101 75.217 38.932 L 75.217 38.989 L 60.631 38.989 L 60.631 37.329 C 60.631 36.064 60.107 34.881 59.194 34.084 L 58.347 35.053 L 59.055 33.96 C 55.921 31.168 54.122 27.047 54.122 22.652 L 54.122 20.219 C 54.122 19.759 54.721 19.247 55.578 19.247 C 56.436 19.247 57.034 19.759 57.034 20.219 L 57.034 24.79 C 57.034 25.501 57.61 26.078 58.321 26.078 C 58.68 26.078 59.003 25.931 59.236 25.694 C 59.471 25.461 59.616 25.139 59.616 24.782 L 59.616 9.269 Z  M 41.106 12.737 L 57.04 12.737 L 57.04 16.922 C 56.585 16.765 56.095 16.671 55.578 16.671 C 53.355 16.671 51.546 18.263 51.546 20.219 L 51.546 22.652 C 51.546 26.192 52.573 29.572 54.407 32.413 L 41.106 32.413 L 41.106 12.737 Z  M 7.839 29.69 C 7.839 28.974 8.284 28.367 8.81 28.367 L 18.66 28.367 C 19.372 28.367 19.948 27.791 19.948 27.079 C 19.948 26.368 19.372 25.792 18.66 25.792 L 8.81 25.792 L 6.048 25.792 C 5.521 25.792 5.076 25.185 5.076 24.468 C 5.076 23.751 5.521 23.145 6.048 23.145 L 8.81 23.145 L 18.66 23.145 C 19.372 23.145 19.948 22.568 19.948 21.857 C 19.948 21.146 19.372 20.569 18.66 20.569 L 8.81 20.569 C 8.284 20.569 7.839 19.963 7.839 19.246 C 7.839 18.529 8.284 17.923 8.81 17.923 L 18.66 17.923 C 19.372 17.923 19.948 17.346 19.948 16.635 C 19.948 15.924 19.372 15.347 18.66 15.347 L 13.333 15.347 C 13.324 14.805 13.402 14.269 13.7 13.901 C 14.136 13.364 14.908 13.344 14.913 13.344 L 27.705 13.344 C 27.76 13.344 27.812 13.34 27.865 13.333 C 29.011 13.191 30.857 13.566 33.049 14.396 C 34.82 15.066 36.646 15.406 38.479 15.406 L 38.53 15.406 L 38.53 29.992 L 36.875 29.992 C 35.613 29.992 34.43 30.515 33.63 31.428 L 33.506 31.569 C 30.715 34.704 26.594 36.501 22.199 36.501 L 19.766 36.501 C 19.305 36.501 18.793 35.903 18.793 35.045 C 18.793 34.187 19.305 33.589 19.766 33.589 L 24.337 33.589 C 25.049 33.589 25.625 33.013 25.625 32.301 C 25.625 31.59 25.049 31.013 24.337 31.013 L 19.766 31.013 L 8.81 31.013 C 8.284 31.013 7.839 30.407 7.839 29.69 Z  M 11.661 33.589 L 16.466 33.589 C 16.311 34.042 16.218 34.53 16.218 35.045 C 16.218 37.269 17.809 39.077 19.766 39.077 L 22.199 39.077 C 25.479 39.077 28.629 38.204 31.336 36.617 L 31.336 48.434 L 11.661 48.434 L 11.661 33.589 Z  M 29.937 80.733 C 29.937 81.26 29.33 81.705 28.614 81.705 C 27.895 81.705 27.289 81.26 27.289 80.733 L 27.289 70.883 C 27.289 70.172 26.713 69.595 26.001 69.595 C 25.289 69.595 24.713 70.172 24.713 70.883 L 24.713 80.733 L 24.713 83.496 C 24.713 84.022 24.107 84.467 23.39 84.467 C 22.673 84.467 22.067 84.022 22.067 83.496 L 22.067 80.733 L 22.067 70.883 C 22.067 70.172 21.491 69.595 20.779 69.595 C 20.067 69.595 19.491 70.172 19.491 70.883 L 19.491 80.733 C 19.491 81.26 18.885 81.705 18.168 81.705 C 17.451 81.705 16.845 81.26 16.845 80.733 L 16.845 70.883 C 16.845 70.172 16.269 69.595 15.557 69.595 C 14.846 69.595 14.27 70.172 14.27 70.883 L 14.27 76.211 C 13.727 76.22 13.191 76.142 12.824 75.843 C 12.286 75.408 12.266 74.634 12.266 74.63 L 12.266 61.838 C 12.266 61.785 12.262 61.732 12.256 61.679 C 12.113 60.527 12.49 58.686 13.319 56.494 C 13.989 54.722 14.329 52.896 14.329 51.064 L 14.329 51.01 L 28.914 51.01 L 28.914 52.668 C 28.914 53.931 29.437 55.113 30.35 55.912 L 30.491 56.037 C 33.625 58.829 35.424 62.95 35.424 67.344 L 35.424 69.778 C 35.424 70.237 34.825 70.749 33.968 70.749 C 33.11 70.749 32.512 70.237 32.512 69.778 L 32.512 65.206 C 32.512 64.495 31.936 63.919 31.224 63.919 C 30.513 63.919 29.937 64.495 29.937 65.206 L 29.937 69.778 L 29.937 80.733 L 29.937 80.733 Z  M 32.512 77.426 L 32.512 73.076 C 32.965 73.232 33.453 73.325 33.968 73.325 C 36.191 73.325 38 71.733 38 69.778 L 38 67.344 C 38 63.874 37.012 60.556 35.246 57.75 L 48.903 57.75 L 48.903 58.862 C 48.902 58.87 48.898 58.878 48.898 58.887 C 48.898 58.895 48.902 58.903 48.903 58.911 L 48.903 76.023 C 48.902 76.032 48.898 76.04 48.898 76.048 C 48.898 76.057 48.902 76.064 48.903 76.073 L 48.903 77.426 L 32.512 77.426 Z  M 83.952 67.022 L 81.19 67.022 L 71.34 67.022 C 70.628 67.022 70.052 67.599 70.052 68.31 C 70.052 69.021 70.628 69.598 71.34 69.598 L 81.19 69.598 C 81.716 69.598 82.161 70.204 82.161 70.921 C 82.161 71.638 81.716 72.244 81.19 72.244 L 71.34 72.244 C 70.628 72.244 70.052 72.821 70.052 73.532 C 70.052 74.243 70.628 74.82 71.34 74.82 L 76.667 74.82 C 76.676 75.362 76.598 75.898 76.3 76.265 C 75.864 76.803 75.092 76.823 75.087 76.823 L 62.295 76.823 C 62.24 76.823 62.188 76.826 62.135 76.833 C 60.985 76.978 59.143 76.601 56.951 75.771 C 55.18 75.101 53.354 74.761 51.521 74.761 L 51.478 74.761 L 51.478 60.174 L 53.125 60.174 C 54.387 60.174 55.57 59.651 56.37 58.739 L 56.494 58.598 C 59.285 55.464 63.406 53.666 67.801 53.666 L 70.234 53.666 C 70.695 53.666 71.207 54.264 71.207 55.122 C 71.207 55.979 70.695 56.577 70.234 56.577 L 65.663 56.577 C 64.951 56.577 64.375 57.154 64.375 57.865 C 64.375 58.576 64.951 59.153 65.663 59.153 L 70.234 59.153 L 81.19 59.153 C 81.716 59.153 82.161 59.759 82.161 60.476 C 82.161 61.193 81.716 61.799 81.19 61.799 L 71.34 61.799 C 70.628 61.799 70.052 62.376 70.052 63.087 C 70.052 63.798 70.628 64.375 71.34 64.375 L 81.19 64.375 L 83.952 64.375 C 84.479 64.375 84.924 64.981 84.924 65.699 C 84.924 66.416 84.479 67.022 83.952 67.022 Z " fill="rgb(102,102,102)"/></g></svg>