<?xml version="1.0" standalone="no"?><!-- Generator: Gravit.io --><svg xmlns="http://www.w3.org/2000/svg" xmlns:xlink="http://www.w3.org/1999/xlink" style="isolation:isolate" viewBox="0 0 90 90" width="90" height="90"><defs><clipPath id="_clipPath_ENLsvGrjbRPUSZmWZ3UfTP2pWldU5YvK"><rect width="90" height="90"/></clipPath></defs><g clip-path="url(#_clipPath_ENLsvGrjbRPUSZmWZ3UfTP2pWldU5YvK)"><g><path d=" M 67.803 7.797 C 67.523 7.657 67.103 7.657 66.824 7.936 C 65.565 9.754 61.091 15.487 58.714 18.703 C 54.239 24.576 49.904 30.449 45.43 36.322 C 45.15 36.742 44.591 37.161 44.171 37.161 C 38.298 37.581 34.243 42.894 35.502 48.627 C 36.48 53.521 41.514 57.017 46.688 55.759 C 52.141 54.5 55.078 49.047 53.54 43.873 C 53.4 43.314 53.4 42.615 53.68 42.055 C 57.036 34.225 60.531 26.254 63.887 18.424 C 65.146 15.627 67.383 10.453 68.082 8.775 C 68.222 8.356 68.082 7.936 67.803 7.797 L 67.803 7.797 Z  M 45.01 51.424 C 42.493 51.704 40.256 49.886 39.976 47.369 C 39.696 44.852 41.514 42.615 44.031 42.335 C 46.548 42.055 48.786 43.873 49.065 46.39 C 49.345 48.907 47.527 51.144 45.01 51.424 Z " fill="rgb(102,102,102)"/><path d=" M 87.239 41.216 C 88.218 50.026 86.4 58.416 82.485 65.547 L 73.815 61.772 L 74.654 59.954 C 77.87 52.962 78.849 45.971 77.311 38.839 C 75.913 31.987 72.557 25.975 67.383 20.941 L 67.803 20.102 C 68.921 17.445 70.04 14.928 71.159 12.271 C 79.828 19.123 85.981 29.331 87.239 41.216 Z " fill="rgb(102,102,102)"/><path d=" M 62.489 6.678 L 56.896 13.949 C 41.794 8.636 28.79 11.292 18.302 21.92 C 6.696 33.805 4.459 48.068 11.59 64.428 L 8.234 66.246 C 0.544 54.36 -0.575 34.225 12.15 18.703 C 25.713 2.343 47.527 0.106 62.07 6.538 L 62.489 6.678 Z " fill="rgb(102,102,102)"/><path d=" M 66.553 73.458 C 66.431 70.76 68.523 68.47 71.221 68.348 C 73.92 68.226 76.209 70.318 76.331 73.017 C 76.453 75.715 74.361 78.005 71.663 78.127 C 68.964 78.249 66.675 76.157 66.553 73.458 Z " fill="rgb(102,102,102)"/><path d=" M 53.965 82.129 C 53.843 79.431 55.935 77.141 58.633 77.019 C 61.332 76.897 63.622 78.989 63.743 81.687 C 63.865 84.386 61.773 86.676 59.075 86.797 C 56.377 86.919 54.087 84.827 53.965 82.129 Z " fill="rgb(102,102,102)"/></g></g></svg>