<svg width="16" height="16" viewBox="0 0 16 16" version="1.1" xmlns="http://www.w3.org/2000/svg" xmlns:xlink="http://www.w3.org/1999/xlink">
<title>phone_16</title>
<desc>Created using Figma</desc>
<g id="Canvas" transform="translate(141 -681)">
<g id="phone_16">
<g id="Vector">
<use xlink:href="#path0_fill" transform="translate(-141 681)" fill="#666666"/>
</g>
</g>
</g>
<defs>
<path id="path0_fill" d="M 3.21778 6.92444C 4.49778 9.44 6.56 11.4933 9.07556 12.7822L 11.0311 10.8267C 11.2711 10.5867 11.6267 10.5067 11.9378 10.6133C 12.9333 10.9422 14.0089 11.12 15.1111 11.12C 15.6 11.12 16 11.52 16 12.0089L 16 15.1111C 16 15.6 15.6 16 15.1111 16C 6.76444 16 0 9.23556 0 0.888889C 0 0.4 0.4 0 0.888889 0L 4 0C 4.48889 0 4.88889 0.4 4.88889 0.888889C 4.88889 2 5.06667 3.06667 5.39556 4.06222C 5.49333 4.37333 5.42222 4.72 5.17333 4.96889L 3.21778 6.92444Z"/>
</defs>
</svg>
