<?xml version="1.0" standalone="no"?><!-- Generator: Gravit.io --><svg xmlns="http://www.w3.org/2000/svg" xmlns:xlink="http://www.w3.org/1999/xlink" style="isolation:isolate" viewBox="0 0 90 90" width="90" height="90"><defs><clipPath id="_clipPath_w19IzbfQ4ow6TBiI1plV06A275MPLTrb"><rect width="90" height="90"/></clipPath></defs><g clip-path="url(#_clipPath_w19IzbfQ4ow6TBiI1plV06A275MPLTrb)"><g><path d=" M 69.083 75.58 L 63.745 70.242 C 66.285 65.607 67.667 60.605 67.667 55.48 L 67.667 54.917 L 70.5 54.917 L 70.5 52.083 L 67.667 52.083 L 67.667 39.333 C 67.667 38.551 67.033 37.917 66.25 37.917 L 56.333 37.917 L 56.333 29.417 C 56.333 28.635 55.7 28 54.917 28 L 50.667 28 L 50.667 23.75 C 50.667 12.033 41.134 2.5 29.417 2.5 C 17.699 2.5 8.167 12.033 8.167 23.75 L 8.167 28 L 3.917 28 C 3.133 28 2.5 28.635 2.5 29.417 L 2.5 39.333 L 2.5 46.417 L 2.5 53.5 L 2.5 60.583 L 2.5 67.667 L 2.5 71.917 C 2.5 75.822 5.678 79 9.583 79 L 32.909 79 C 36.092 82.159 39.925 84.981 44.334 87.333 C 44.542 87.445 44.77 87.5 45 87.5 C 45.229 87.5 45.458 87.445 45.667 87.333 C 52.817 83.519 58.454 78.472 62.239 72.741 L 67.08 77.583 L 62 77.583 L 62 80.417 L 70.5 80.417 C 71.283 80.417 71.917 79.782 71.917 79 L 71.917 70.5 L 69.083 70.5 L 69.083 75.58 Z  M 64.833 55.48 C 64.833 59.851 63.723 64.138 61.657 68.153 L 59.189 65.685 C 60.714 62.326 61.664 58.691 61.925 54.915 L 64.833 54.915 L 64.833 55.48 Z  M 59.167 52.083 L 45 52.083 C 44.428 52.083 43.909 52.429 43.691 52.957 C 43.471 53.487 43.593 54.096 43.998 54.502 L 55.75 66.253 C 53.296 70.807 49.621 74.689 45 77.375 C 36.241 72.285 30.833 62.921 30.833 52.751 L 30.833 46.417 L 59.167 46.417 L 59.167 52.083 Z  M 48.42 54.917 L 59.077 54.917 C 58.849 57.916 58.155 60.821 57.043 63.538 L 48.42 54.917 Z  M 11 23.75 C 11 13.595 19.262 5.333 29.417 5.333 C 39.571 5.333 47.833 13.595 47.833 23.75 L 47.833 28 L 43.583 28 L 43.583 23.75 C 43.583 15.939 37.228 9.583 29.417 9.583 C 21.605 9.583 15.25 15.939 15.25 23.75 L 15.25 28 L 11 28 L 11 23.75 Z  M 40.75 28 L 18.083 28 L 18.083 23.75 C 18.083 17.501 23.168 12.417 29.417 12.417 C 35.666 12.417 40.75 17.501 40.75 23.75 L 40.75 28 Z  M 5.333 54.917 L 13.833 54.917 L 13.833 59.167 L 5.333 59.167 L 5.333 54.917 Z  M 13.833 52.083 L 5.333 52.083 L 5.333 47.833 L 13.833 47.833 L 13.833 52.083 Z  M 5.333 62 L 13.833 62 L 13.833 66.25 L 5.333 66.25 L 5.333 62 Z  M 13.833 45 L 5.333 45 L 5.333 40.75 L 13.833 40.75 L 13.833 45 Z  M 9.583 76.167 C 7.24 76.167 5.333 74.26 5.333 71.917 L 5.333 69.083 L 15.25 69.083 C 16.033 69.083 16.667 68.449 16.667 67.667 L 16.667 60.583 L 16.667 53.5 L 16.667 46.417 L 16.667 39.333 C 16.667 38.551 16.033 37.917 15.25 37.917 L 5.333 37.917 L 5.333 30.833 L 53.5 30.833 L 53.5 37.917 L 23.75 37.917 C 22.967 37.917 22.333 38.551 22.333 39.333 L 22.333 55.48 C 22.333 62.878 25.188 70.028 30.318 76.167 L 9.583 76.167 Z  M 45 84.471 C 32.566 77.603 25.167 66.812 25.167 55.48 L 25.167 40.75 L 64.833 40.75 L 64.833 52.083 L 62 52.083 L 62 45 C 62 44.218 61.367 43.583 60.583 43.583 L 29.417 43.583 C 28.633 43.583 28 44.218 28 45 L 28 52.749 C 28 64.217 34.255 74.753 44.321 80.244 C 44.533 80.359 44.766 80.417 45 80.417 C 45.234 80.417 45.468 80.359 45.679 80.244 C 50.851 77.423 55.007 73.264 57.835 68.338 L 60.19 70.693 C 56.78 76.053 51.612 80.82 45 84.471 Z " fill="rgb(102,102,102)"/><rect x="73.333" y="52.083" width="2.833" height="2.833" transform="matrix(1,0,0,1,0,0)" fill="rgb(102,102,102)"/><rect x="79" y="52.083" width="2.833" height="2.833" transform="matrix(1,0,0,1,0,0)" fill="rgb(102,102,102)"/><rect x="84.667" y="52.083" width="2.833" height="2.833" transform="matrix(1,0,0,1,0,0)" fill="rgb(102,102,102)"/><rect x="79" y="13.833" width="2.833" height="2.833" transform="matrix(1,0,0,1,0,0)" fill="rgb(102,102,102)"/><rect x="84.667" y="13.833" width="2.833" height="2.833" transform="matrix(1,0,0,1,0,0)" fill="rgb(102,102,102)"/><path d=" M 84.667 28 L 68.253 28 L 71.502 24.752 L 69.498 22.748 L 63.832 28.415 C 63.278 28.969 63.278 29.864 63.832 30.418 L 69.498 36.085 L 71.502 34.082 L 68.253 30.833 L 84.667 30.833 L 84.667 28 Z " fill="rgb(102,102,102)"/><path d=" M 78.585 37.502 L 76.582 35.498 L 70.915 41.165 C 70.361 41.719 70.361 42.614 70.915 43.168 L 76.582 48.835 L 78.585 46.832 L 75.337 43.583 L 87.5 43.583 L 87.5 40.75 L 75.337 40.75 L 78.585 37.502 Z " fill="rgb(102,102,102)"/><path d=" M 60.998 21.918 L 63.002 19.915 L 59.753 16.667 L 76.167 16.667 L 76.167 13.833 L 59.753 13.833 L 63.002 10.585 L 60.998 8.582 L 55.332 14.248 C 54.778 14.802 54.778 15.698 55.332 16.252 L 60.998 21.918 Z " fill="rgb(102,102,102)"/></g></g></svg>