<?xml version="1.0" standalone="no"?><!-- Generator: Gravit.io --><svg xmlns="http://www.w3.org/2000/svg" xmlns:xlink="http://www.w3.org/1999/xlink" style="isolation:isolate" viewBox="0 0 90 90" width="90" height="90"><defs><clipPath id="_clipPath_GD5huN58au1BEbBc68rnpCumDP0QWZOg"><rect width="90" height="90"/></clipPath></defs><g clip-path="url(#_clipPath_GD5huN58au1BEbBc68rnpCumDP0QWZOg)"><g><rect x="46.103" y="24.822" width="1.947" height="6.209" transform="matrix(1,0,0,1,0,0)" fill="rgb(102,102,102)"/><rect x="36.565" y="30.381" width="5.842" height="2.069" transform="matrix(-0.66,-0.752,0.665,-0.758,44.635,84.899)" fill="rgb(102,102,102)"/><rect x="33.775" y="38.865" width="5.45" height="2.217" transform="matrix(1,0,0,1,0,0)" fill="rgb(102,102,102)"/><rect x="55.057" y="39.013" width="5.45" height="2.217" transform="matrix(1,0,0,1,0,0)" fill="rgb(102,102,102)"/><rect x="51.703" y="30.362" width="5.842" height="2.069" transform="matrix(0.66,-0.752,0.665,0.758,-2.299,48.66)" fill="rgb(102,102,102)"/><path d=" M 81.271 2.5 L 8.599 2.5 C 5.225 2.5 2.5 5.752 2.5 9.596 L 2.5 60.448 C 2.5 64.291 5.225 67.543 8.599 67.543 L 38.057 67.543 C 38.187 70.5 39.485 73.161 41.561 74.787 C 42.729 75.674 43.508 77.3 43.508 78.926 L 43.508 80.552 C 43.378 80.7 43.378 80.7 43.248 80.848 C 42.729 81.587 42.34 82.474 42.469 83.509 C 42.469 84.543 42.599 84.987 42.599 85.43 C 42.599 85.874 42.729 86.17 42.729 87.5 L 44.676 87.5 C 44.676 86.022 44.676 85.726 44.546 85.135 C 44.546 84.839 44.416 84.396 44.416 83.361 C 44.416 82.917 44.546 82.622 44.676 82.326 C 44.805 82.178 44.935 82.03 45.195 82.03 L 61.805 82.03 C 61.935 82.03 62.195 82.178 62.324 82.326 C 62.584 82.622 62.584 82.917 62.584 83.361 C 62.454 84.691 62.454 84.987 62.454 84.987 C 62.324 85.283 62.324 85.578 62.324 87.352 L 64.271 87.352 C 64.271 86.909 64.271 85.874 64.271 85.726 C 64.401 85.43 64.401 85.135 64.531 83.361 C 64.531 82.474 64.271 81.587 63.882 80.848 L 63.882 80.848 C 63.882 80.257 64.011 78.483 64.531 77.448 C 64.66 77.152 64.79 76.857 64.92 76.561 C 65.698 75.23 66.477 73.604 67.126 70.5 C 67.256 69.613 67.385 68.578 67.385 67.396 L 81.271 67.396 C 84.645 67.396 87.5 64.291 87.5 60.3 L 87.5 9.596 C 87.5 5.752 84.645 2.5 81.271 2.5 Z  M 65.179 69.909 C 64.66 72.717 63.882 74.048 63.233 75.378 C 63.103 75.674 62.973 75.97 62.714 76.265 C 62.195 77.3 61.935 78.778 61.935 79.665 C 61.935 79.665 61.805 79.665 61.805 79.665 L 45.454 79.665 L 45.454 78.778 C 45.454 76.413 44.416 74.196 42.729 72.865 C 41.042 71.535 40.004 69.317 40.004 66.952 L 40.004 58.822 L 40.004 58.674 C 40.004 57.639 40.782 56.604 41.821 56.604 C 42.729 56.604 43.637 57.491 43.637 58.674 L 43.637 63.404 L 45.584 63.404 L 45.584 58.674 C 45.584 58.378 45.584 58.23 45.584 57.935 L 45.584 57.935 L 45.584 39.604 C 45.584 38.57 46.363 37.535 47.401 37.535 C 48.309 37.535 49.218 38.422 49.218 39.604 L 49.218 47.883 L 49.218 54.83 L 49.218 57.787 L 51.164 57.787 L 51.164 54.83 L 51.164 47.883 C 51.164 46.848 51.943 45.813 52.981 45.813 C 53.889 45.813 54.798 46.7 54.798 47.883 L 54.798 49.213 L 54.798 54.83 L 54.798 57.491 L 56.744 57.491 L 56.744 54.978 L 56.744 49.361 C 56.744 48.326 57.523 47.291 58.561 47.291 C 59.469 47.291 60.378 48.178 60.378 49.361 L 60.378 52.17 L 60.378 57.491 L 60.378 59.413 L 62.324 59.413 L 62.324 57.491 L 62.324 52.022 C 62.324 50.987 63.103 49.952 64.141 49.952 C 65.05 49.952 65.958 50.839 65.958 52.022 L 65.958 59.413 L 66.088 59.413 L 65.958 59.413 C 65.309 59.561 65.828 66.804 65.179 69.909 Z  M 63.492 47.883 C 62.844 47.883 62.195 48.03 61.676 48.474 C 61.286 46.552 59.859 45.074 58.042 45.074 C 57.263 45.074 56.485 45.37 55.836 45.961 C 55.187 44.63 54.019 43.743 52.592 43.743 C 51.943 43.743 51.424 43.891 50.775 44.335 L 50.775 39.752 C 50.775 37.387 49.088 35.465 47.011 35.465 C 44.935 35.465 43.248 37.387 43.248 39.752 L 43.248 54.978 C 42.989 54.535 42.34 54.239 41.691 54.239 C 40.004 54.239 38.576 55.57 38.187 57.343 L 11.454 57.343 L 11.454 12.552 L 75.042 12.552 L 75.042 57.343 L 67.256 57.343 L 67.256 52.022 C 67.256 49.657 65.569 47.883 63.492 47.883 Z  M 85.553 60.3 C 85.553 62.961 83.607 65.178 81.271 65.178 L 67.385 65.178 C 67.385 62.813 67.256 60.448 67.256 59.561 L 76.989 59.561 L 76.989 10.335 L 9.508 10.335 L 9.508 59.561 L 38.057 59.561 L 38.057 65.178 L 8.599 65.178 C 6.263 65.178 4.447 62.961 4.447 60.3 L 4.447 9.596 C 4.447 6.935 6.393 4.717 8.599 4.717 L 81.271 4.717 C 83.607 4.717 85.553 6.935 85.553 9.596 L 85.553 60.3 Z " fill="rgb(102,102,102)"/><path d=" M 81.141 31.474 C 79.454 31.474 78.027 33.1 78.027 35.022 C 78.027 36.943 79.454 38.57 81.141 38.57 C 82.828 38.57 84.256 36.943 84.256 35.022 C 84.256 33.1 82.828 31.474 81.141 31.474 Z  M 81.141 36.204 C 80.492 36.204 79.973 35.613 79.973 34.874 C 79.973 34.135 80.492 33.543 81.141 33.543 C 81.79 33.543 82.309 34.135 82.309 34.874 C 82.309 35.761 81.79 36.204 81.141 36.204 Z " fill="rgb(102,102,102)"/></g></g></svg>