<?xml version="1.0" standalone="no"?><!-- Generator: Gravit.io --><svg xmlns="http://www.w3.org/2000/svg" xmlns:xlink="http://www.w3.org/1999/xlink" style="isolation:isolate" viewBox="0 0 90 90" width="90" height="90"><defs><clipPath id="_clipPath_saRc7hVhJEDIKZeInl6je7aNu0nyc8L8"><rect width="90" height="90"/></clipPath></defs><g clip-path="url(#_clipPath_saRc7hVhJEDIKZeInl6je7aNu0nyc8L8)"><g><g><path d=" M 44.995 72.355 C 29.913 72.355 17.644 60.085 17.644 45.005 C 17.644 29.925 29.913 17.656 44.995 17.656 C 60.075 17.656 72.344 29.925 72.344 45.005 C 72.344 60.085 60.075 72.355 44.995 72.355 Z  M 44.995 21.198 C 31.866 21.198 21.185 31.878 21.185 45.005 C 21.185 58.133 31.866 68.813 44.995 68.813 C 58.122 68.813 68.802 58.133 68.802 45.005 C 68.802 31.878 58.122 21.198 44.995 21.198 Z " fill="rgb(102,102,102)"/></g><g><path d=" M 49.498 82.682 C 49.086 82.682 48.685 82.539 48.365 82.272 C 47.99 81.959 47.76 81.506 47.731 81.018 C 47.644 79.578 46.444 78.45 45 78.45 C 43.546 78.45 42.339 79.578 42.252 81.018 C 42.223 81.506 41.993 81.959 41.617 82.272 C 41.24 82.585 40.751 82.725 40.269 82.668 C 23.003 80.541 9.459 66.997 7.33 49.731 C 7.269 49.247 7.413 48.758 7.726 48.383 C 8.039 48.007 8.492 47.777 8.98 47.748 C 10.42 47.661 11.55 46.454 11.55 45 C 11.55 43.554 10.422 42.356 8.982 42.269 C 8.494 42.24 8.039 42.012 7.726 41.635 C 7.413 41.259 7.269 40.772 7.33 40.286 C 9.455 23.018 23.001 9.474 40.269 7.347 C 40.749 7.285 41.24 7.43 41.617 7.743 C 41.993 8.056 42.223 8.509 42.252 8.997 C 42.339 10.427 43.546 11.548 45 11.548 C 46.446 11.548 47.644 10.427 47.731 8.997 C 47.76 8.509 47.99 8.056 48.365 7.743 C 48.742 7.43 49.23 7.287 49.714 7.347 C 66.982 9.473 80.526 23.017 82.653 40.286 C 82.713 40.772 82.57 41.259 82.257 41.635 C 81.944 42.012 81.489 42.24 81.001 42.269 C 79.571 42.354 78.45 43.554 78.45 45 C 78.45 46.454 79.571 47.661 81.003 47.748 C 81.491 47.777 81.944 48.007 82.257 48.383 C 82.57 48.758 82.713 49.247 82.653 49.731 C 80.524 67.001 66.98 80.545 49.714 82.668 C 49.642 82.677 49.571 82.682 49.498 82.682 Z  M 45 74.909 C 47.651 74.909 49.944 76.567 50.856 78.923 C 65.228 76.482 76.463 65.245 78.907 50.871 C 76.56 49.956 74.909 47.658 74.909 45 C 74.909 42.347 76.56 40.058 78.907 39.144 C 76.465 24.769 65.23 13.533 50.854 11.091 C 49.941 13.438 47.651 15.09 45 15.09 C 42.342 15.09 40.045 13.438 39.129 11.091 C 24.755 13.535 13.518 24.77 11.076 39.143 C 13.433 40.054 15.091 42.347 15.091 45 C 15.091 47.66 13.433 49.958 11.076 50.873 C 13.519 65.247 24.755 76.481 39.127 78.923 C 40.042 76.567 42.34 74.909 45 74.909 Z " fill="rgb(102,102,102)"/></g><g><path d=" M 45 15.09 C 41.7 15.09 38.956 12.546 38.723 9.284 C 38.704 9.134 38.697 8.968 38.697 8.803 C 38.697 5.327 41.524 2.5 45 2.5 C 48.466 2.5 51.286 5.327 51.286 8.803 C 51.286 8.968 51.279 9.134 51.26 9.284 C 51.027 12.546 48.291 15.09 45 15.09 Z  M 45 6.042 C 43.476 6.042 42.238 7.28 42.238 8.803 C 42.254 8.881 42.247 8.919 42.252 8.997 C 42.339 10.427 43.546 11.548 45 11.548 C 46.446 11.548 47.644 10.427 47.731 8.997 C 47.736 8.919 47.744 8.841 47.76 8.764 L 47.744 8.803 C 47.744 7.28 46.513 6.042 45 6.042 Z " fill="rgb(102,102,102)"/></g><g><path d=" M 45 87.5 C 41.524 87.5 38.697 84.679 38.697 81.212 C 38.697 81.008 38.704 80.837 38.736 80.629 C 38.916 77.499 41.676 74.909 45 74.909 C 48.315 74.909 51.066 77.499 51.265 80.804 C 51.279 80.837 51.286 81.008 51.286 81.212 C 51.286 84.679 48.466 87.5 45 87.5 Z  M 45 78.45 C 43.546 78.45 42.339 79.578 42.252 81.018 L 42.238 81.212 C 42.238 82.727 43.476 83.958 45 83.958 C 46.513 83.958 47.744 82.727 47.744 81.212 L 49.515 81.212 L 47.744 81.141 C 47.644 79.578 46.444 78.45 45 78.45 Z " fill="rgb(102,102,102)"/></g><g><path d=" M 81.197 51.303 C 81.029 51.303 80.865 51.296 80.714 51.277 C 77.453 51.042 74.909 48.3 74.909 45 C 74.909 41.716 77.44 38.987 80.69 38.742 C 80.894 38.712 81.07 38.712 81.197 38.712 C 84.673 38.712 87.5 41.533 87.5 45 C 87.5 48.476 84.673 51.303 81.197 51.303 Z  M 81.197 42.254 C 81.108 42.273 81.091 42.264 81.001 42.269 C 79.571 42.354 78.45 43.554 78.45 45 C 78.45 46.454 79.571 47.661 81.003 47.748 C 81.081 47.753 81.159 47.762 81.236 47.777 C 82.72 47.762 83.958 46.524 83.958 45 C 83.958 43.485 82.72 42.254 81.197 42.254 Z " fill="rgb(102,102,102)"/></g><g><path d=" M 8.786 51.303 C 5.321 51.303 2.5 48.476 2.5 45 C 2.5 41.533 5.321 38.712 8.786 38.712 C 8.964 38.712 9.115 38.717 9.281 38.74 C 12.546 38.98 15.091 41.713 15.091 45 C 15.091 48.298 12.54 51.041 9.272 51.277 C 9.108 51.298 8.961 51.303 8.786 51.303 Z  M 8.772 42.245 C 7.273 42.254 6.042 43.485 6.042 45 C 6.042 46.524 7.273 47.762 8.786 47.762 C 8.845 47.751 8.921 47.751 8.98 47.748 C 10.42 47.661 11.55 46.454 11.55 45 C 11.55 43.554 10.422 42.356 8.982 42.269 C 8.912 42.266 8.841 42.257 8.772 42.245 Z " fill="rgb(102,102,102)"/></g><g><g><path d=" M 44.995 72.355 C 37.771 72.355 32.324 60.597 32.324 45.005 C 32.324 29.414 37.771 17.656 44.995 17.656 C 52.218 17.656 57.664 29.414 57.664 45.005 C 57.664 60.597 52.218 72.355 44.995 72.355 Z  M 44.995 21.198 C 40.677 21.198 35.866 30.975 35.866 45.005 C 35.866 59.035 40.677 68.813 44.995 68.813 C 49.311 68.813 54.122 59.035 54.122 45.005 C 54.122 30.975 49.311 21.198 44.995 21.198 Z " fill="rgb(102,102,102)"/></g><g><path d=" M 44.991 72.355 C 44.013 72.355 43.221 71.563 43.221 70.584 L 43.221 19.427 C 43.221 18.448 44.013 17.656 44.991 17.656 C 45.97 17.656 46.762 18.448 46.762 19.427 L 46.762 70.584 C 46.762 71.563 45.97 72.355 44.991 72.355 Z " fill="rgb(102,102,102)"/></g><g><g><path d=" M 68.232 36.151 L 21.756 36.151 C 21.153 36.151 20.591 35.843 20.265 35.337 C 19.94 34.828 19.895 34.19 20.146 33.642 C 24.606 23.93 34.359 17.656 44.995 17.656 C 55.632 17.656 65.384 23.93 69.842 33.642 C 70.093 34.19 70.048 34.828 69.722 35.337 C 69.397 35.843 68.835 36.151 68.232 36.151 Z  M 24.705 32.609 L 65.283 32.609 C 60.988 25.597 53.301 21.198 44.995 21.198 C 36.691 21.198 29.002 25.597 24.705 32.609 Z " fill="rgb(102,102,102)"/></g><g><path d=" M 44.995 72.355 C 34.359 72.355 24.606 66.081 20.146 56.369 C 19.895 55.82 19.94 55.182 20.265 54.674 C 20.591 54.167 21.153 53.859 21.756 53.859 L 68.232 53.859 C 68.835 53.859 69.397 54.167 69.722 54.674 C 70.048 55.182 70.093 55.82 69.842 56.369 C 65.384 66.081 55.632 72.355 44.995 72.355 Z  M 24.705 57.401 C 29.002 64.413 36.691 68.813 44.995 68.813 C 53.301 68.813 60.988 64.413 65.283 57.401 L 24.705 57.401 Z " fill="rgb(102,102,102)"/></g><g><path d=" M 70.573 46.776 L 19.416 46.776 C 18.438 46.776 17.645 45.984 17.645 45.005 C 17.645 41.078 18.488 37.254 20.148 33.64 C 20.437 33.012 21.064 32.609 21.756 32.609 L 68.232 32.609 C 68.924 32.609 69.551 33.012 69.84 33.64 C 71.502 37.256 72.344 41.08 72.344 45.005 C 72.344 45.984 71.552 46.776 70.573 46.776 Z  M 21.253 43.234 L 68.737 43.234 C 68.553 40.81 67.995 38.437 67.068 36.151 L 22.92 36.151 C 21.993 38.435 21.436 40.808 21.253 43.234 Z " fill="rgb(102,102,102)"/></g><g><path d=" M 68.232 57.401 L 21.756 57.401 C 21.064 57.401 20.437 56.998 20.148 56.37 C 18.488 52.756 17.645 48.932 17.645 45.005 C 17.645 44.026 18.438 43.234 19.416 43.234 L 70.573 43.234 C 71.552 43.234 72.344 44.026 72.344 45.005 C 72.344 48.931 71.502 52.754 69.84 56.37 C 69.551 56.998 68.924 57.401 68.232 57.401 Z  M 22.92 53.859 L 67.068 53.859 C 67.995 51.573 68.553 49.201 68.737 46.776 L 21.253 46.776 C 21.436 49.202 21.993 51.575 22.92 53.859 Z " fill="rgb(102,102,102)"/></g></g></g></g></g></svg>